<svg xmlns="http://www.w3.org/2000/svg" viewBox="0 0 24 24"><title>checklist-alternate</title><path d="M21 0H3C2.20435 0 1.44129.31607.87868.87868.31607 1.44129 0 2.20435 0 3v18c0 .7956.31607 1.5587.87868 2.1213C1.44129 23.6839 2.20435 24 3 24h18c.7956 0 1.5587-.3161 2.1213-.8787C23.6839 22.5587 24 21.7956 24 21V3c0-.79565-.3161-1.55871-.8787-2.12132C22.5587.31607 21.7956 0 21 0zm1 21c0 .2652-.1054.5196-.2929.7071S21.2652 22 21 22H3c-.26522 0-.51957-.1054-.70711-.2929C2.10536 21.5196 2 21.2652 2 21V3c0-.26522.10536-.51957.29289-.70711C2.48043 2.10536 2.73478 2 3 2h18c.2652 0 .5196.10536.7071.29289C21.8946 2.48043 22 2.73478 22 3v18z"/><path d="M18.6247 6.21913c.4313.34501.5012.9743.1562 1.40557l-8 10c-.1777.2221-.4416.358-.7256.3738-.28401.0157-.56127-.0903-.76241-.2914l-4-4c-.39052-.3905-.39052-1.0237 0-1.4142.39053-.3905 1.02369-.3905 1.41422 0l3.20997 3.21 7.30202-9.12759c.345-.43127.9743-.50119 1.4056-.15618z"/></svg>